<mxfile host="app.diagrams.net" modified="2021-11-04T01:16:25.571Z" agent="5.0 (Windows NT 10.0; Win64; x64) AppleWebKit/537.36 (KHTML, like Gecko) Chrome/95.0.4638.54 Safari/537.36 Edg/95.0.1020.40" etag="Gkg8LP5V_bXj5YPGkTsI" version="15.6.8" type="github">
  <diagram id="7fYVpfodZOvaR-Go6_Dw" name="Page-1">
    <mxGraphModel dx="990" dy="579" grid="1" gridSize="10" guides="1" tooltips="1" connect="1" arrows="1" fold="1" page="1" pageScale="1" pageWidth="850" pageHeight="1100" math="0" shadow="0">
      <root>
        <mxCell id="0" />
        <mxCell id="1" parent="0" />
        <mxCell id="UAhqaPwdALd8EfrcVp91-6" style="edgeStyle=orthogonalEdgeStyle;rounded=0;orthogonalLoop=1;jettySize=auto;html=1;entryX=0.5;entryY=0;entryDx=0;entryDy=0;fontStyle=1" edge="1" parent="1" source="UAhqaPwdALd8EfrcVp91-1" target="UAhqaPwdALd8EfrcVp91-5">
          <mxGeometry relative="1" as="geometry" />
        </mxCell>
        <mxCell id="UAhqaPwdALd8EfrcVp91-1" value="Server" style="rounded=0;whiteSpace=wrap;html=1;fontStyle=1" vertex="1" parent="1">
          <mxGeometry x="365" y="100" width="120" height="60" as="geometry" />
        </mxCell>
        <mxCell id="UAhqaPwdALd8EfrcVp91-3" value="&lt;span&gt;Server Hardware&lt;/span&gt;" style="rounded=1;whiteSpace=wrap;html=1;fontStyle=1" vertex="1" parent="1">
          <mxGeometry x="205" y="300" width="120" height="60" as="geometry" />
        </mxCell>
        <mxCell id="UAhqaPwdALd8EfrcVp91-4" value="Webserver Software" style="rounded=1;whiteSpace=wrap;html=1;fontStyle=1" vertex="1" parent="1">
          <mxGeometry x="525" y="300" width="120" height="60" as="geometry" />
        </mxCell>
        <mxCell id="UAhqaPwdALd8EfrcVp91-8" style="edgeStyle=orthogonalEdgeStyle;rounded=0;orthogonalLoop=1;jettySize=auto;html=1;entryX=0.5;entryY=0;entryDx=0;entryDy=0;fontStyle=1" edge="1" parent="1" source="UAhqaPwdALd8EfrcVp91-5" target="UAhqaPwdALd8EfrcVp91-7">
          <mxGeometry relative="1" as="geometry" />
        </mxCell>
        <mxCell id="UAhqaPwdALd8EfrcVp91-9" style="edgeStyle=orthogonalEdgeStyle;rounded=0;orthogonalLoop=1;jettySize=auto;html=1;entryX=0.5;entryY=0;entryDx=0;entryDy=0;fontStyle=1" edge="1" parent="1" source="UAhqaPwdALd8EfrcVp91-5" target="UAhqaPwdALd8EfrcVp91-3">
          <mxGeometry relative="1" as="geometry" />
        </mxCell>
        <mxCell id="UAhqaPwdALd8EfrcVp91-10" style="edgeStyle=orthogonalEdgeStyle;rounded=0;orthogonalLoop=1;jettySize=auto;html=1;entryX=0.5;entryY=0;entryDx=0;entryDy=0;fontStyle=1" edge="1" parent="1" source="UAhqaPwdALd8EfrcVp91-5" target="UAhqaPwdALd8EfrcVp91-4">
          <mxGeometry relative="1" as="geometry" />
        </mxCell>
        <mxCell id="UAhqaPwdALd8EfrcVp91-5" value="Operating System" style="rounded=1;whiteSpace=wrap;html=1;fontStyle=1" vertex="1" parent="1">
          <mxGeometry x="365" y="200" width="120" height="60" as="geometry" />
        </mxCell>
        <mxCell id="UAhqaPwdALd8EfrcVp91-7" value="Protocols" style="rounded=1;whiteSpace=wrap;html=1;fontStyle=1" vertex="1" parent="1">
          <mxGeometry x="365" y="300" width="120" height="60" as="geometry" />
        </mxCell>
      </root>
    </mxGraphModel>
  </diagram>
</mxfile>
